<svg xmlns="http://www.w3.org/2000/svg" width="100" height="100" viewBox="0 0 100 100"><title>logo</title><g id="logo"><path d="M25.221,15.152V36.608H37.677v5.04H20v-26.5Z" fill="#fff"/><path d="M56.366,21.7A13.744,13.744,0,0,1,61.3,16.718a13.215,13.215,0,0,1,13.5,0A14.027,14.027,0,0,1,79.765,21.7a13.208,13.208,0,0,1,0,13.5A13.812,13.812,0,0,1,74.8,40.118a13.472,13.472,0,0,1-13.517,0A13.571,13.571,0,0,1,56.366,35.2a13.433,13.433,0,0,1,0-13.5Zm4.679,10.98a8.276,8.276,0,0,0,2.989,3.078A7.991,7.991,0,0,0,68.228,36.9,7.585,7.585,0,0,0,72.3,35.762a8.019,8.019,0,0,0,2.88-3.06,9.209,9.209,0,0,0-.036-8.586,8.224,8.224,0,0,0-2.933-3.078,8.06,8.06,0,0,0-8.245,0,8.216,8.216,0,0,0-2.933,3.078,8.733,8.733,0,0,0-1.08,4.32A8.49,8.49,0,0,0,61.045,32.684Z" fill="#ffff8d"/><path d="M39.071,83.534a19.453,19.453,0,0,1-3.456,1.152,14.977,14.977,0,0,1-3.439.45,15.974,15.974,0,0,1-7.4-1.637,11.911,11.911,0,0,1-4.914-4.537,12.635,12.635,0,0,1-1.729-6.606,15.673,15.673,0,0,1,1.836-7.866,11.916,11.916,0,0,1,4.933-4.823,14.645,14.645,0,0,1,6.84-1.6,18.416,18.416,0,0,1,4.536.54,16.689,16.689,0,0,1,3.744,1.4l-1.692,4.86a13.133,13.133,0,0,0-2.863-1.062,12.193,12.193,0,0,0-3.042-.486q-4.32,0-6.6,2.16t-2.286,6.408a7.986,7.986,0,0,0,1.116,4.266,7.309,7.309,0,0,0,3.113,2.79,10.282,10.282,0,0,0,4.555.973,7.507,7.507,0,0,0,3.636-.685v-3.2H31.384v-5.04h9.865v11.2A7.069,7.069,0,0,1,39.071,83.534Z" fill="#ffff8d"/><path d="M56.61,64.9a13.739,13.739,0,0,1,4.932-4.986,13.215,13.215,0,0,1,13.5,0A14.032,14.032,0,0,1,80.009,64.9a13.208,13.208,0,0,1,0,13.5,13.817,13.817,0,0,1-4.967,4.914,13.473,13.473,0,0,1-13.518,0A13.571,13.571,0,0,1,56.61,78.4a13.44,13.44,0,0,1,0-13.5Zm4.68,10.98a8.259,8.259,0,0,0,2.988,3.078A7.994,7.994,0,0,0,68.472,80.1a7.591,7.591,0,0,0,4.068-1.134,8.016,8.016,0,0,0,2.879-3.06,9.209,9.209,0,0,0-.036-8.586,8.223,8.223,0,0,0-2.933-3.078,8.059,8.059,0,0,0-8.244,0,8.218,8.218,0,0,0-2.934,3.078,8.733,8.733,0,0,0-1.08,4.32A8.48,8.48,0,0,0,61.29,75.884Z" fill="#fff"/><path d="M99,1V99H1V1H99m1-1H0V100H100V0Z" fill="#fff"/></g></svg>